<mxfile host="app.diagrams.net" modified="2022-09-29T15:20:28.606Z" agent="5.0 (Windows NT 10.0; Win64; x64) AppleWebKit/537.36 (KHTML, like Gecko) Chrome/105.0.0.0 Safari/537.36" etag="Sf4Zf6Qo2DgbNepLbX94" version="20.3.7" type="github">
  <diagram id="NCL2p-JWgOGxsxKp1H8N" name="페이지-1">
    <mxGraphModel dx="1038" dy="1716" grid="1" gridSize="10" guides="1" tooltips="1" connect="1" arrows="1" fold="1" page="1" pageScale="1" pageWidth="827" pageHeight="1169" math="0" shadow="0">
      <root>
        <mxCell id="0" />
        <mxCell id="1" parent="0" />
        <mxCell id="VMQcNs2NsHs9lcobG29F-1" value="사용자" style="shape=umlActor;verticalLabelPosition=bottom;verticalAlign=top;html=1;outlineConnect=0;" parent="1" vertex="1">
          <mxGeometry x="20" y="230" width="30" height="60" as="geometry" />
        </mxCell>
        <mxCell id="VMQcNs2NsHs9lcobG29F-6" value="센서" style="rounded=1;whiteSpace=wrap;html=1;" parent="1" vertex="1">
          <mxGeometry x="660" y="40" width="90" height="40" as="geometry" />
        </mxCell>
        <mxCell id="VMQcNs2NsHs9lcobG29F-7" value="디바이스" style="rounded=1;whiteSpace=wrap;html=1;" parent="1" vertex="1">
          <mxGeometry x="660" y="120" width="90" height="40" as="geometry" />
        </mxCell>
        <mxCell id="VMQcNs2NsHs9lcobG29F-11" value="관찰일지를 열람한다." style="ellipse;whiteSpace=wrap;html=1;" parent="1" vertex="1">
          <mxGeometry x="220" y="90" width="130" height="70" as="geometry" />
        </mxCell>
        <mxCell id="VMQcNs2NsHs9lcobG29F-12" value="로그인 한다." style="ellipse;whiteSpace=wrap;html=1;" parent="1" vertex="1">
          <mxGeometry x="660" y="360" width="90" height="40" as="geometry" />
        </mxCell>
        <mxCell id="VMQcNs2NsHs9lcobG29F-13" value="환경제어에 들어간다." style="ellipse;whiteSpace=wrap;html=1;" parent="1" vertex="1">
          <mxGeometry x="284" y="215" width="130" height="70" as="geometry" />
        </mxCell>
        <mxCell id="VMQcNs2NsHs9lcobG29F-14" value="실시간 cctv 접속한다." style="ellipse;whiteSpace=wrap;html=1;" parent="1" vertex="1">
          <mxGeometry x="220" y="340" width="130" height="70" as="geometry" />
        </mxCell>
        <mxCell id="7xkepa5mnOWRhtYiWadu-7" value="Include" style="endArrow=open;endSize=16;endFill=0;html=1;rounded=0;exitX=1;exitY=0.5;exitDx=0;exitDy=0;dashed=1;entryX=0;entryY=0.5;entryDx=0;entryDy=0;" parent="1" source="VMQcNs2NsHs9lcobG29F-13" target="VMQcNs2NsHs9lcobG29F-12" edge="1">
          <mxGeometry width="160" relative="1" as="geometry">
            <mxPoint x="489" y="155" as="sourcePoint" />
            <mxPoint x="660" y="450" as="targetPoint" />
          </mxGeometry>
        </mxCell>
        <mxCell id="7xkepa5mnOWRhtYiWadu-11" value="Include" style="endArrow=open;endSize=16;endFill=0;html=1;rounded=0;dashed=1;exitX=1;exitY=0.5;exitDx=0;exitDy=0;entryX=0;entryY=0.5;entryDx=0;entryDy=0;" parent="1" source="VMQcNs2NsHs9lcobG29F-14" target="VMQcNs2NsHs9lcobG29F-12" edge="1">
          <mxGeometry width="160" relative="1" as="geometry">
            <mxPoint x="410" y="330" as="sourcePoint" />
            <mxPoint x="660" y="450" as="targetPoint" />
          </mxGeometry>
        </mxCell>
        <mxCell id="7xkepa5mnOWRhtYiWadu-12" value="Include" style="endArrow=open;endSize=16;endFill=0;html=1;rounded=0;exitX=1;exitY=0.5;exitDx=0;exitDy=0;dashed=1;entryX=0;entryY=0.5;entryDx=0;entryDy=0;" parent="1" source="VMQcNs2NsHs9lcobG29F-11" target="VMQcNs2NsHs9lcobG29F-12" edge="1">
          <mxGeometry width="160" relative="1" as="geometry">
            <mxPoint x="680" y="360" as="sourcePoint" />
            <mxPoint x="700" y="360" as="targetPoint" />
          </mxGeometry>
        </mxCell>
        <mxCell id="7xkepa5mnOWRhtYiWadu-15" value="날짜를 선택한다." style="ellipse;whiteSpace=wrap;html=1;" parent="1" vertex="1">
          <mxGeometry x="220" y="-20" width="130" height="70" as="geometry" />
        </mxCell>
        <mxCell id="7xkepa5mnOWRhtYiWadu-16" value="Include" style="endArrow=open;endSize=16;endFill=0;html=1;rounded=0;exitX=0.5;exitY=0;exitDx=0;exitDy=0;dashed=1;entryX=0.5;entryY=1;entryDx=0;entryDy=0;" parent="1" source="VMQcNs2NsHs9lcobG29F-11" target="7xkepa5mnOWRhtYiWadu-15" edge="1">
          <mxGeometry width="160" relative="1" as="geometry">
            <mxPoint x="360" y="135" as="sourcePoint" />
            <mxPoint x="470" y="50" as="targetPoint" />
          </mxGeometry>
        </mxCell>
        <mxCell id="7xkepa5mnOWRhtYiWadu-17" value="" style="endArrow=classic;html=1;rounded=0;entryX=-0.015;entryY=0.606;entryDx=0;entryDy=0;entryPerimeter=0;" parent="1" source="VMQcNs2NsHs9lcobG29F-1" target="VMQcNs2NsHs9lcobG29F-11" edge="1">
          <mxGeometry width="50" height="50" relative="1" as="geometry">
            <mxPoint x="390" y="360" as="sourcePoint" />
            <mxPoint x="440" y="310" as="targetPoint" />
          </mxGeometry>
        </mxCell>
        <mxCell id="7xkepa5mnOWRhtYiWadu-18" value="" style="endArrow=classic;html=1;rounded=0;entryX=0;entryY=0.5;entryDx=0;entryDy=0;exitX=1;exitY=0.3333333333333333;exitDx=0;exitDy=0;exitPerimeter=0;" parent="1" source="VMQcNs2NsHs9lcobG29F-1" target="7xkepa5mnOWRhtYiWadu-20" edge="1">
          <mxGeometry width="50" height="50" relative="1" as="geometry">
            <mxPoint x="140" y="225.79621542940322" as="sourcePoint" />
            <mxPoint x="228.04999999999995" y="142.42000000000007" as="targetPoint" />
          </mxGeometry>
        </mxCell>
        <mxCell id="7xkepa5mnOWRhtYiWadu-19" value="" style="endArrow=classic;html=1;rounded=0;entryX=0;entryY=0.5;entryDx=0;entryDy=0;exitX=1;exitY=0.3333333333333333;exitDx=0;exitDy=0;exitPerimeter=0;" parent="1" source="VMQcNs2NsHs9lcobG29F-1" target="VMQcNs2NsHs9lcobG29F-14" edge="1">
          <mxGeometry width="50" height="50" relative="1" as="geometry">
            <mxPoint x="130" y="220" as="sourcePoint" />
            <mxPoint x="238.04999999999995" y="152.42000000000007" as="targetPoint" />
          </mxGeometry>
        </mxCell>
        <mxCell id="7xkepa5mnOWRhtYiWadu-20" value="사용자가 환경을 제어한다." style="ellipse;whiteSpace=wrap;html=1;" parent="1" vertex="1">
          <mxGeometry x="110" y="220" width="116" height="60" as="geometry" />
        </mxCell>
        <mxCell id="7xkepa5mnOWRhtYiWadu-22" value="Include" style="endArrow=open;endSize=16;endFill=0;html=1;rounded=0;exitX=1;exitY=0.5;exitDx=0;exitDy=0;dashed=1;entryX=0;entryY=0.5;entryDx=0;entryDy=0;" parent="1" source="7xkepa5mnOWRhtYiWadu-20" target="VMQcNs2NsHs9lcobG29F-13" edge="1">
          <mxGeometry width="160" relative="1" as="geometry">
            <mxPoint x="180" y="307.5" as="sourcePoint" />
            <mxPoint x="490" y="442.5" as="targetPoint" />
          </mxGeometry>
        </mxCell>
        <mxCell id="NQVfX0kyocod-ZurXNuU-1" value="" style="endArrow=open;html=1;rounded=0;exitX=0;exitY=0.5;exitDx=0;exitDy=0;entryX=1;entryY=0.5;entryDx=0;entryDy=0;endFill=0;" edge="1" parent="1" source="VMQcNs2NsHs9lcobG29F-6" target="VMQcNs2NsHs9lcobG29F-13">
          <mxGeometry width="50" height="50" relative="1" as="geometry">
            <mxPoint x="390" y="310" as="sourcePoint" />
            <mxPoint x="440" y="260" as="targetPoint" />
          </mxGeometry>
        </mxCell>
        <mxCell id="NQVfX0kyocod-ZurXNuU-2" value="" style="endArrow=open;html=1;rounded=0;exitX=0;exitY=0.25;exitDx=0;exitDy=0;entryX=1;entryY=0.5;entryDx=0;entryDy=0;endFill=0;" edge="1" parent="1" source="VMQcNs2NsHs9lcobG29F-7" target="VMQcNs2NsHs9lcobG29F-13">
          <mxGeometry width="50" height="50" relative="1" as="geometry">
            <mxPoint x="670" y="200" as="sourcePoint" />
            <mxPoint x="424" y="260" as="targetPoint" />
          </mxGeometry>
        </mxCell>
      </root>
    </mxGraphModel>
  </diagram>
</mxfile>
